HIERARCHY
ROOT Hips
{
	OFFSET 0.000000 0.000000 0.000000 
	CHANNELS 6 Xposition Yposition Zposition Yrotation Zrotation Xrotation 
	JOINT Lumbar
	{
		OFFSET 0.000000 0.000000 0.000000 
		CHANNELS 3 Zrotation Xrotation Yrotation
		JOINT Neck
		{
			OFFSET 0.000000 0.445665 0.000000 
			CHANNELS 3 Zrotation Xrotation Yrotation
			End Site
			{
				OFFSET 0.000000 0.227535 0.000000 
			}
		}
		JOINT RightShoulder
		{
			OFFSET 0.019635 0.377685 0.194865 
			CHANNELS 3 Zrotation Xrotation Yrotation
			JOINT RightElbow
			{
				OFFSET 0.000000 -0.243375 0.000000 
				CHANNELS 2 Zrotation Yrotation
				JOINT RightWrist
				{
					OFFSET 0.000000 -0.264825 0.000000 
					CHANNELS 2 Zrotation Xrotation
					End Site
					{
						OFFSET 0.006600 -0.176220 0.000990 
					}
				}
			}
		}
		JOINT LeftShoulder
		{
			OFFSET 0.019635 0.377685 -0.194865 
			CHANNELS 3 Zrotation Xrotation Yrotation
			JOINT LeftElbow
			{
				OFFSET 0.000000 -0.243375 0.000000 
				CHANNELS 2 Zrotation Yrotation
				JOINT LeftWrist
				{
					OFFSET 0.000000 -0.264825 0.000000 
					CHANNELS 2 Zrotation Xrotation
					End Site
					{
						OFFSET 0.006600 -0.176220 -0.000990 
					}
				}
			}
		}
	}
	JOINT RightHip
	{
		OFFSET 0.052140 -0.069960 0.075570 
		CHANNELS 3 Zrotation Xrotation Yrotation
		JOINT RightKnee
		{
			OFFSET 0.000000 -0.402270 0.000000 
			CHANNELS 1 Zrotation
			JOINT RightAnkle
			{
				OFFSET 0.000000 -0.404085 0.000000 
				CHANNELS 3 Zrotation Xrotation Yrotation
				End Site
				{
					OFFSET 0.204105 -0.089430 0.008415 
				}
			}
		}
	}
	JOINT LeftHip
	{
		OFFSET 0.052140 -0.069960 -0.075570 
		CHANNELS 3 Zrotation Xrotation Yrotation
		JOINT LeftKnee
		{
			OFFSET 0.000000 -0.402270 0.000000 
			CHANNELS 1 Zrotation
			JOINT LeftAnkle
			{
				OFFSET 0.000000 -0.404085 0.000000 
				CHANNELS 3 Zrotation Xrotation Yrotation
				End Site
				{
					OFFSET 0.204105 -0.089430 -0.008415 
				}
			}
		}
	}
}
MOTION
Frames: 14
Frame Time: 0.02
-0.00083 -0.00021 0.00082 24.88447 -17.11309 -3.12119 42.06454 -0.86286 -6.55875 -12.11959 6.50363 -1.2171 -16.47903 -3.97881 -14.75632 20.27994 117.15606 12.05095 5.99163 -22.86808 7.83948 -1.81841 32.78479 -65.19627 -2.78805 5.01733 28.63329 -2.5687 -2.60489 -20.75488 -7.25621 -4.18048 -4.31703 33.7115 6.40725 8.7658 -24.76782 -6.42482 1.94437 3.16495
-0.00109 -0.00026 0.00064 24.78976 -17.08393 -3.10938 42.06605 -0.86337 -6.54606 -12.18919 6.524 -1.21872 -16.50865 -3.98246 -14.73209 20.29773 117.13605 12.07083 5.99473 -22.91405 7.84722 -1.82096 32.80585 -69.20913 -0.97678 4.29664 28.60098 -2.70108 -3.203 -20.75062 -7.20368 -4.13623 -4.28939 33.68343 6.37063 8.64836 -24.77894 -6.42457 1.9571 3.17329
-0.00134 -0.0003 0.00047 24.69503 -17.05489 -3.09758 42.0676 -0.86381 -6.53342 -12.25864 6.5444 -1.22035 -16.53812 -3.98618 -14.70788 20.31541 117.11602 12.09055 5.99783 -22.96023 7.85496 -1.82342 32.82733 -73.20988 0.82903 3.57814 28.56883 -2.83323 -3.79984 -20.74635 -7.15123 -4.09204 -4.26178 33.6555 6.33409 8.53124 -24.79009 -6.42432 1.96984 3.18161
-0.0016 -0.00035 0.0003 24.60057 -17.02583 -3.0858 42.06911 -0.86431 -6.52077 -12.32803 6.56472 -1.22197 -16.56764 -3.98983 -14.6837 20.33315 117.09594 12.11033 6.00089 -23.00609 7.86268 -1.82597 32.8484 -77.2102 2.63466 2.85971 28.53663 -2.96524 -4.39622 -20.7421 -7.09885 -4.04791 -4.23421 33.62753 6.29757 8.41416 -24.80118 -6.42408 1.98254 3.18993
-0.00185 -0.00039 0.00013 24.50623 -16.99662 -3.074 42.07057 -0.8649 -6.50805 -12.39757 6.585 -1.2236 -16.59733 -3.99341 -14.65956 20.351 117.0762 12.13035 6.00401 -23.05164 7.87037 -1.82855 32.8689 -81.22314 4.44589 2.13901 28.50424 -3.09739 -4.99356 -20.73784 -7.0464 -4.00378 -4.20663 33.59941 6.26099 8.29677 -24.81222 -6.42383 1.99522 3.19824
-0.0021 -0.00044 -5e-05 24.41064 -16.96795 -3.06223 42.0723 -0.86504 -6.49559 -12.46683 6.60563 -1.22521 -16.62633 -3.99741 -14.63522 20.36833 117.05576 12.14948 6.00711 -23.09916 7.87821 -1.83074 32.89243 -85.19838 6.24033 1.42512 28.47262 -3.22953 -5.58927 -20.73356 -6.99397 -3.95946 -4.17899 33.57187 6.22454 8.18025 -24.8236 -6.42357 2.00806 3.2066
-0.00236 -0.00048 -0.00021 24.31776 -16.93823 -3.05041 42.07349 -0.86608 -6.4826 -12.53656 6.62551 -1.22685 -16.65671 -4.00056 -14.61122 20.38672 117.03592 12.17022 6.01009 -23.14258 7.88578 -1.83391 32.90977 -89.2433 8.06594 0.69859 28.43947 -3.36158 -6.18783 -20.72934 -6.94155 -3.91554 -4.15148 33.54323 6.18786 8.06208 -24.83427 -6.42334 2.02057 3.21485
-0.00261 -0.00053 -0.00039 24.22224 -16.90947 -3.03863 42.07515 -0.86629 -6.47015 -12.60587 6.64614 -1.22847 -16.68578 -4.00447 -14.58709 20.40408 117.01704 12.18979 6.01344 -23.18993 7.89351 -1.8358 32.93295 -93.22723 9.86399 -0.01679 28.40774 -3.49366 -6.78333 -20.72506 -6.88915 -3.87128 -4.12387 33.51554 6.15138 7.94548 -24.8456 -6.42308 2.03339 3.2232
-0.00287 -0.00057 -0.00057 24.12396 -16.88192 -3.02691 42.07753 -0.86549 -6.45816 -12.67463 6.66748 -1.23007 -16.71338 -4.00942 -14.56203 20.42038 116.99332 12.20664 6.01621 -23.24157 7.9018 -1.83758 32.96286 -97.12533 11.62442 -0.71681 28.37771 -3.62608 -7.37714 -20.72071 -6.83661 -3.82646 -4.09603 33.48924 6.11521 7.83057 -24.85774 -6.42281 2.04659 3.23167
-0.00311 -0.00062 -0.0007 24.04292 -16.84751 -3.01488 42.07619 -0.87052 -6.44291 -12.74644 6.68412 -1.23176 -16.74985 -4.0087 -14.53999 20.44337 116.97936 12.23529 6.01922 -23.26696 7.90796 -1.8444 32.95283 -101.48351 13.58954 -1.50005 28.33779 -3.75746 -7.98686 -20.71677 -6.78441 -3.78444 -4.0692 33.45562 6.07746 7.70523 -24.86526 -6.42264 2.05759 3.23945
-0.00339 -0.00066 -0.00095 23.92468 -16.82749 -3.0035 42.08243 -0.86321 -6.43495 -12.81189 6.71106 -1.23327 -16.76736 -4.01976 -14.51308 20.45188 116.95638 12.24152 6.02371 -23.34872 7.91792 -1.83778 33.02778 -104.89225 15.13015 -2.11092 28.31881 -3.89043 -8.55895 -20.71197 -6.73177 -3.7368 -4.04042 33.43703 6.04291 7.60236 -24.88247 -6.42224 2.07325 3.24871
-0.0038 -0.00068 -0.00156 23.70983 -16.84809 -2.99395 42.11171 -0.82204 -6.44396 -12.85928 6.76353 -1.23431 -16.73444 -4.0651 -14.45989 20.42335 116.8109 12.16494 6.01565 -23.57833 7.94465 -1.81839 33.33166 -105.48385 15.43028 -2.21599 28.35719 -4.03293 -9.06105 -20.70464 -6.67561 -3.67118 -4.00482 33.46336 6.0179 7.55742 -24.927 -6.42146 2.10166 3.26202
-0.00426 -0.0007 -0.0023 23.45649 -16.88292 -2.98501 42.1482 -0.76852 -6.46092 -12.90051 6.82684 -1.23518 -16.6823 -4.1219 -14.40397 20.3799 116.67272 12.06951 6.01185 -23.86552 7.97442 -1.78206 33.72102 -105.15235 15.3151 -2.15265 28.41661 -4.17616 -9.51947 -20.69649 -6.61941 -3.60037 -3.96753 33.50407 5.99579 7.53533 -24.98114 -6.4204 2.13481 3.27686
-0.0047 -0.00072 -0.003 23.2173 -16.91051 -2.97581 42.17989 -0.72054 -6.4762 -12.94482 6.88702 -1.23612 -16.63776 -4.17221 -14.35796 20.34136 116.59726 11.99699 6.01735 -24.1312 7.99814 -1.73641 34.07488 -105.3932 15.44327 -2.18959 28.4665 -4.31553 -9.97586 -20.68878 -6.56476 -3.53363 -3.93198 33.53586 5.97207 7.50575 -25.03039 -6.41928 2.16574 3.29098
